<svg width="141" height="35" xmlns="http://www.w3.org/2000/svg" xmlns:xlink="http://www.w3.org/1999/xlink" overflow="hidden"><defs><clipPath id="clip0"><rect x="1026" y="48" width="141" height="35"/></clipPath></defs><g clip-path="url(#clip0)" transform="translate(-1026 -48)"><path d="M7.77112 19.7305 3.93879 25.5422 0 25.5422 5.92149 17.0725 0.598802 9.42116 4.59082 9.42116 8.07718 14.3746 11.3407 9.41118 15.2794 9.41118 9.90353 17.0093 15.8683 25.5422 11.8197 25.5422Z" fill="#FFFFFF" transform="matrix(1.00955 0 0 1 1026.12 48)"/><path d="M19.1883 9.41118 22.7345 9.41118 22.7345 25.5422 19.1883 25.5422Z" fill="#FFFFFF" transform="matrix(1.00955 0 0 1 1026.12 48)"/><path d="M31.4804 12.6414 25.8849 12.6414 25.8849 9.41118 40.642 9.41118 40.642 12.6414 35.0699 12.6414 35.0699 25.5489 31.4804 25.5489Z" fill="#FFFFFF" transform="matrix(1.00955 0 0 1 1026.12 48)"/><path d="M58.9155 23.6693 60.7019 21.1011C62.4172 22.2377 64.4328 22.8365 66.4904 22.821 69.6474 22.821 70.2362 22.2122 70.2362 20.8616 70.2362 19.511 68.8856 19.2715 66.4039 18.9255 62.0792 18.3134 59.8536 17.5316 59.8536 14.0253 59.8536 10.4358 62.0293 9.1517 66.5769 9.1517 69.8636 9.1517 71.8663 9.91351 73.1071 10.7385L71.191 13.5063C70.1663 12.841 68.2735 12.2655 66.5336 12.2655 64.0087 12.2655 63.3999 12.7645 63.3999 13.9288 63.3999 15.2362 64.7305 15.4757 67.2954 15.845 71.171 16.4105 73.7625 17.0426 73.7625 20.6753 73.7625 23.9421 71.9761 25.7718 66.6001 25.7718 63.3999 25.7818 60.7452 25.02 58.9155 23.6693Z" fill="#FFFFFF" transform="matrix(1.00955 0 0 1 1026.12 48)"/><path d="M76.5669 17.4651C76.5669 11.4138 79.9667 9.14837 85.1031 9.14837 90.2395 9.14837 93.656 11.4105 93.656 17.4651 93.656 23.5196 90.2395 25.8017 85.1031 25.8017 79.9667 25.8017 76.5669 23.5396 76.5669 17.4651ZM90.0433 17.5316C90.0433 14.3746 88.8024 12.4152 85.1031 12.4152 81.4039 12.4152 80.173 14.3746 80.173 17.5316 80.173 20.6886 81.4138 22.668 85.1164 22.668 88.819 22.668 90.0433 20.6853 90.0433 17.5316Z" fill="#FFFFFF" transform="matrix(1.00955 0 0 1 1026.12 48)"/><path d="M50.5123 9.30472 46.8962 9.30472 40.4325 25.5422 43.9155 25.5422 48.6161 13.5263 51.1411 19.9468 48.1803 19.9468 47.0293 22.8842 52.2721 22.8842 53.32 25.5422 57.0193 25.5422 50.5123 9.30472Z" fill="#FFFFFF" transform="matrix(1.00955 0 0 1 1026.12 48)"/><path d="M131.011 17.6515 132.923 17.6515 132.923 31.0347 131.011 31.0347Z" fill="#FFFFFF" transform="matrix(0.710239 -0.704015 0.710736 0.703523 1047.69 148.013)"/><path d="M128.306 20.3588 130.218 20.3588 130.218 33.7419 128.306 33.7419Z" fill="#FFFFFF" transform="matrix(0.710615 -0.70365 0.710367 0.703896 1044.93 146.842)"/><path d="M122.571 7.15952 135.954 7.15952 135.954 9.07474 122.571 9.07474Z" fill="#FFFFFF" transform="matrix(0.71049 -0.703771 0.71049 0.703771 1058.4 141.343)"/><path d="M129.993 0 121.923 8.07385 113.849 0 112.505 1.34731 121.923 10.7651 131.341 1.34731 129.993 0Z" fill="#FFFFFF" transform="matrix(1.00955 0 0 1 1026.12 48)"/><path d="M125.278 9.86353 138.661 9.86353 138.661 11.7754 125.278 11.7754Z" fill="#FFFFFF" transform="matrix(0.71074 -0.703528 0.710244 0.70402 1057.23 143.988)"/><path d="M131.351 17.5017 139.424 9.42781 138.077 8.08051 128.656 17.5017 138.077 26.9195 139.424 25.5722 131.351 17.5017Z" fill="#FFFFFF" transform="matrix(1.00955 0 0 1 1026.12 48)"/><path d="M105.768 8.08051 104.421 9.42781 112.495 17.5017 104.421 25.5722 105.768 26.9195 115.186 17.5017 105.768 8.08051Z" fill="#FFFFFF" transform="matrix(1.00955 0 0 1 1026.12 48)"/><path d="M109.81 4.04192 108.463 5.3859 120.576 17.5017 108.463 29.6141 109.81 30.9614 123.27 17.5017 109.81 4.04192Z" fill="#FFFFFF" transform="matrix(1.00955 0 0 1 1026.12 48)"/><path d="M131.341 33.656 121.923 24.2349 112.505 33.656 113.849 35 121.923 26.9295 129.993 35 131.341 33.656Z" fill="#FFFFFF" transform="matrix(1.00955 0 0 1 1026.12 48)"/></g></svg>